HIERARCHY
ROOT Hips
{
	OFFSET 0.00000 0.00000 0.00000
	CHANNELS 6 Xposition Yposition Zposition Zrotation Yrotation Xrotation 
	JOINT LHipJoint
	{
		OFFSET 0 0 0
		CHANNELS 3 Zrotation Yrotation Xrotation
		JOINT LeftUpLeg
		{
			OFFSET 1.55766 -1.60504 1.11378
			CHANNELS 3 Zrotation Yrotation Xrotation
			JOINT LeftLeg
			{
				OFFSET 2.29047 -6.29302 0.00000
				CHANNELS 3 Zrotation Yrotation Xrotation
				JOINT LeftFoot
				{
					OFFSET 2.52265 -6.93093 0.00000
					CHANNELS 3 Zrotation Yrotation Xrotation
					JOINT LeftToeBase
					{
						OFFSET 0.17633 -0.48446 2.02656
						CHANNELS 3 Zrotation Yrotation Xrotation
						End Site
						{
							OFFSET 0.00000 -0.00000 1.04989
						}
					}
				}
			}
		}
	}
	JOINT RHipJoint
	{
		OFFSET 0 0 0
		CHANNELS 3 Zrotation Yrotation Xrotation
		JOINT RightUpLeg
		{
			OFFSET -1.48599 -1.60504 1.11378
			CHANNELS 3 Zrotation Yrotation Xrotation
			JOINT RightLeg
			{
				OFFSET -2.27280 -6.24448 0.00000
				CHANNELS 3 Zrotation Yrotation Xrotation
				JOINT RightFoot
				{
					OFFSET -2.50834 -6.89161 0.00000
					CHANNELS 3 Zrotation Yrotation Xrotation
					JOINT RightToeBase
					{
						OFFSET -0.26967 -0.74090 2.08741
						CHANNELS 3 Zrotation Yrotation Xrotation
						End Site
						{
							OFFSET -0.00000 -0.00000 1.10614
						}
					}
				}
			}
		}
	}
	JOINT LowerBack
	{
		OFFSET 0 0 0
		CHANNELS 3 Zrotation Yrotation Xrotation
		JOINT Spine
		{
			OFFSET 0.06481 2.02437 -0.08472
			CHANNELS 3 Zrotation Yrotation Xrotation
			JOINT Spine1
			{
				OFFSET 0.00015 1.96711 0.18069
				CHANNELS 3 Zrotation Yrotation Xrotation
				JOINT Neck
				{
					OFFSET 0 0 0
					CHANNELS 3 Zrotation Yrotation Xrotation
					JOINT Neck1
					{
						OFFSET -0.29961 1.68293 -0.13041
						CHANNELS 3 Zrotation Yrotation Xrotation
						JOINT Head
						{
							OFFSET 0.59697 1.61501 -0.14669
							CHANNELS 3 Zrotation Yrotation Xrotation
							End Site
							{
								OFFSET 0.22973 1.74906 -0.10148
							}
						}
					}
				}
				JOINT LeftShoulder
				{
					OFFSET 0 0 0
					CHANNELS 3 Zrotation Yrotation Xrotation
					JOINT LeftArm
					{
						OFFSET 3.37968 1.02893 0.31147
						CHANNELS 3 Zrotation Yrotation Xrotation
						JOINT LeftForeArm
						{
							OFFSET 5.19807 -0.00000 -0.00000
							CHANNELS 3 Zrotation Yrotation Xrotation
							JOINT LeftHand
							{
								OFFSET 3.09370 -0.00000 -0.00000
								CHANNELS 3 Zrotation Yrotation Xrotation
								JOINT LeftFingerBase
								{
									OFFSET 0 0 0
									CHANNELS 3 Zrotation Yrotation Xrotation
									JOINT LeftHandIndex1
									{
										OFFSET 0.67263 -0.00000 -0.00000
										CHANNELS 3 Zrotation Yrotation Xrotation
										End Site
										{
											OFFSET 0.54229 -0.00000 -0.00000
										}
									}
								}
								JOINT LThumb
								{
									OFFSET 0 0 0
									CHANNELS 3 Zrotation Yrotation Xrotation
									End Site
									{
										OFFSET 0.55057 -0.00000 0.55057
									}
								}
							}
						}
					}
				}
				JOINT RightShoulder
				{
					OFFSET 0 0 0
					CHANNELS 3 Zrotation Yrotation Xrotation
					JOINT RightArm
					{
						OFFSET -3.38254 0.96355 -0.16120
						CHANNELS 3 Zrotation Yrotation Xrotation
						JOINT RightForeArm
						{
							OFFSET -5.45222 -0.00000 -0.00000
							CHANNELS 3 Zrotation Yrotation Xrotation
							JOINT RightHand
							{
								OFFSET -3.01284 -0.00000 -0.00000
								CHANNELS 3 Zrotation Yrotation Xrotation
								JOINT RightFingerBase
								{
									OFFSET 0 0 0
									CHANNELS 3 Zrotation Yrotation Xrotation
									JOINT RightHandIndex1
									{
										OFFSET -0.62230 -0.00000 -0.00000
										CHANNELS 3 Zrotation Yrotation Xrotation
										End Site
										{
											OFFSET -0.50171 -0.00000 -0.00000
										}
									}
								}
								JOINT RThumb
								{
									OFFSET 0 0 0
									CHANNELS 3 Zrotation Yrotation Xrotation
									End Site
									{
										OFFSET -0.50937 -0.00000 0.50937
									}
								}
							}
						}
					}
				}
			}
		}
	}
}
MOTION
Frames: 7
Frame Time: .0083333
2.5382 16.7515 -33.1048 0 0 0 0 0 0 -21 0 0 0 0 0 0 0 0 0 0 0 0 0 0 21 0 0 0 0 0 0 0 0 0 0 0 0 0 0 0 0 0 0 0 0 0 0 -16 0 0 21 0 0 11 0 0 0 -8 0 0 0 0 0 0 0 0 0 0 0 0 0 0 0 0 0 0 0 0 8 0 0 0 0 0 0 0 0 0 0 0 0 0 0 0 0 0
2.5382 16.7515 -33.1048 -4.8580 -1.6138 16.1179 0.0000 0.0000 0.0000 -13.7589 -0.9483 -23.4732 2.8592 10.4635 30.4911 1.3981 -5.7321 -21.2093 1.3327 -7.3102 -20.6376 0.0000 0.0000 0.0000 23.7780 5.0978 -19.6520 -1.9445 -8.7496 25.0151 -0.7523 15.7368 -17.7710 -0.7482 5.5250 -15.4122 4.9861 2.1826 -12.1656 -0.2600 2.3903 -7.1848 -2.7952 1.0478 -0.5151 -31.5697 -12.0326 29.4603 45.0083 -24.7385 -12.0248 23.9079 -16.1863 3.0853 -0.0000 -0.0000 0.0000 -86.4281 11.8165 42.0153 16.1230 -25.6871 -3.6991 -0.0000 0.0000 -28.4891 15.4447 -8.9327 -2.4565 -7.1250 0.0000 -0.0000 -8.2369 20.7602 4.8318 -0.0000 -0.0000 0.0000 91.2856 -4.3102 36.6925 -12.0396 19.8640 -2.1157 0.0000 0.0000 29.9529 -8.1416 -0.4471 0.0640 7.1250 -0.0000 -0.0000 14.4693 -30.2499 5.3640
2.5339 16.7540 -33.1019 -4.8224 -1.6396 16.1253 0.0000 0.0000 0.0000 -13.7905 -0.9513 -23.4197 2.8475 10.4439 30.4266 1.3956 -5.6507 -21.1956 1.3517 -7.3601 -20.7865 0.0000 0.0000 0.0000 23.7429 5.2391 -19.7195 -1.9622 -8.7869 25.1309 -0.7545 15.6764 -17.7641 -0.7259 5.4439 -15.1790 4.9605 2.1859 -12.1432 -0.2772 2.3978 -7.1484 -2.7978 1.0533 -0.4882 -31.5660 -12.0729 29.3609 45.0259 -24.7627 -12.0595 23.8834 -16.1918 3.1090 -0.0000 -0.0000 0.0000 -86.4126 11.7379 42.0253 16.1138 -25.6747 -3.6951 -0.0000 0.0000 -28.5055 15.4427 -8.9410 -2.4584 -7.1250 0.0000 -0.0000 -8.2381 20.7518 4.8341 -0.0000 -0.0000 0.0000 91.2785 -4.2066 36.7636 -12.0111 19.8213 -2.1060 0.0000 0.0000 29.9331 -8.2541 -0.5003 0.0726 7.1250 -0.0000 -0.0000 14.3904 -30.3044 5.3136
2.5289 16.7497 -33.1013 -4.8180 -1.6537 16.1342 0.0000 0.0000 0.0000 -13.7742 -0.9916 -23.4149 2.8482 10.4452 30.4308 1.3988 -5.6024 -21.2244 1.3609 -7.3840 -20.8582 0.0000 0.0000 0.0000 23.7326 5.4831 -19.6331 -1.9727 -8.8090 25.1997 -0.7879 15.3681 -17.9032 -0.7527 5.5413 -15.4591 4.9284 2.1679 -12.1168 -0.2506 2.3793 -7.1825 -2.7559 1.0435 -0.5418 -31.6550 -12.0001 29.4521 45.0040 -24.7284 -12.0206 23.9296 -16.1794 3.0981 -0.0000 -0.0000 0.0000 -86.4591 11.8371 41.9609 16.1171 -25.6791 -3.6965 -0.0000 0.0000 -28.5065 15.4053 -8.9422 -2.4525 -7.1250 0.0000 -0.0000 -8.2649 20.7524 4.8501 -0.0000 -0.0000 0.0000 91.2298 -4.2768 36.8685 -12.0098 19.8194 -2.1056 0.0000 0.0000 29.8944 -8.2849 -0.5748 0.0837 7.1250 -0.0000 -0.0000 14.3776 -30.3780 5.2824
2.5233 16.7508 -33.0997 -4.8034 -1.6585 16.1472 0.0000 0.0000 0.0000 -13.7711 -0.9739 -23.4228 2.8458 10.4412 30.4175 1.3976 -5.6259 -21.2132 1.3477 -7.3494 -20.7547 0.0000 0.0000 0.0000 23.7187 5.7375 -19.6075 -1.9851 -8.8349 25.2802 -0.8040 15.1263 -17.9369 -0.7537 5.5450 -15.4697 4.8998 2.1703 -12.1048 -0.2573 2.3865 -7.1955 -2.7466 1.0472 -0.5619 -31.6639 -11.9636 29.5203 45.0133 -24.6959 -12.0251 23.9720 -16.1710 3.0738 0.0000 -0.0000 0.0000 -86.4424 11.8859 41.9841 16.1289 -25.6951 -3.7017 -0.0000 0.0000 -28.5248 15.4108 -8.9688 -2.4606 -7.1250 0.0000 -0.0000 -8.2603 20.7249 4.8525 0.0000 -0.0000 0.0000 91.2306 -4.3174 36.8638 -12.0277 19.8462 -2.1117 0.0000 0.0000 29.8660 -8.2780 -0.5009 0.0729 7.1250 -0.0000 -0.0000 14.3720 -30.3055 5.3060
2.5179 16.7501 -33.0986 -4.7845 -1.6664 16.1607 0.0000 0.0000 0.0000 -13.7704 -0.9872 -23.4377 2.8491 10.4466 30.4355 1.3996 -5.6083 -21.2300 1.3490 -7.3530 -20.7654 0.0000 0.0000 0.0000 23.6963 5.9759 -19.5582 -1.9945 -8.8546 25.3416 -0.8220 14.8863 -17.9891 -0.7561 5.5537 -15.4948 4.8706 2.1676 -12.0902 -0.2619 2.3871 -7.2111 -2.7356 1.0474 -0.5868 -31.6868 -11.9275 29.5817 45.0100 -24.6715 -12.0153 24.0027 -16.1640 3.0576 0.0000 0.0000 0.0000 -86.4353 11.9379 41.9869 16.1348 -25.7031 -3.7042 -0.0000 0.0000 -28.5343 15.4029 -8.9872 -2.4643 -7.1250 0.0000 -0.0000 -8.2654 20.7065 4.8591 0.0000 0.0000 0.0000 91.2276 -4.3530 36.8836 -12.0323 19.8531 -2.1133 0.0000 0.0000 29.8576 -8.2910 -0.4990 0.0727 7.1250 -0.0000 -0.0000 14.3617 -30.3040 5.3025
2.5123 16.7491 -33.0976 -4.7644 -1.6700 16.1752 0.0000 0.0000 0.0000 -13.7703 -0.9984 -23.4493 2.8496 10.4476 30.4386 1.4002 -5.5961 -21.2356 1.3497 -7.3547 -20.7705 0.0000 0.0000 0.0000 23.6716 6.2256 -19.5083 -2.0062 -8.8789 25.4173 -0.8421 14.6316 -18.0562 -0.7592 5.5647 -15.5265 4.8422 2.1654 -12.0755 -0.2703 2.3883 -7.2273 -2.7290 1.0479 -0.6122 -31.6981 -11.8954 29.6423 45.0022 -24.6478 -12.0005 24.0263 -16.1567 3.0397 -0.0000 0.0000 0.0000 -86.4204 11.9899 41.9994 16.1413 -25.7119 -3.7071 -0.0000 0.0000 -28.5433 15.3990 -9.0055 -2.4686 -7.1250 0.0000 -0.0000 -8.2678 20.6879 4.8640 -0.0000 0.0000 0.0000 91.2334 -4.3893 36.8893 -12.0380 19.8617 -2.1152 0.0000 0.0000 29.8576 -8.2874 -0.4932 0.0718 7.1250 -0.0000 -0.0000 14.3637 -30.2982 5.3053
